<svg width="43" height="43" viewBox="0 0 43 43" fill="none" xmlns="http://www.w3.org/2000/svg">
<g clip-path="url(#clip0)">
<mask id="path-2-outside-1" maskUnits="userSpaceOnUse" x="-0.309082" y="0" width="44" height="44" fill="black">
<rect fill="white" x="-0.309082" width="44" height="44"/>
<path d="M42.9999 21.4364V21.5C42.9999 21.7938 42.7696 22.0859 42.7571 22.377C42.7365 22.8715 42.2062 23.2549 41.7117 23.2343C41.2172 23.2137 40.7836 22.7586 40.7988 22.3018C40.8104 22.0357 40.7872 21.7679 40.7872 21.5C40.7872 21.0046 41.3981 20.5728 41.8926 20.5728C42.3871 20.5728 42.9999 20.941 42.9999 21.4364ZM42.2205 17.8405C42.2205 18.2651 41.9186 18.6414 41.4868 18.7202C41.0004 18.8098 40.5336 18.4873 40.444 18.0009C40.3912 17.7169 40.333 17.4347 40.2685 17.1543C40.1583 16.6724 40.4584 16.1922 40.9403 16.0811C41.4223 15.97 41.9034 16.271 42.0144 16.7539C42.0852 17.0594 42.1488 17.3675 42.2053 17.6775C42.216 17.7321 42.2205 17.7868 42.2205 17.8405ZM42.0655 25.9191C42.0655 25.9836 42.0583 26.0499 42.044 26.1162C41.975 26.4235 41.8998 26.729 41.8174 27.0318C41.6884 27.5092 41.1965 27.7923 40.7191 27.6633C40.2407 27.5334 39.9603 27.038 40.0875 26.5641C40.1628 26.2846 40.2326 26.006 40.2953 25.7239C40.4037 25.241 40.8821 24.9373 41.365 25.0457C41.7824 25.1389 42.0655 25.5089 42.0655 25.9191ZM40.9117 13.5235C40.9117 13.8702 40.7092 14.1999 40.3706 14.3459C39.9164 14.5421 39.3888 14.3324 39.1935 13.8791C39.0797 13.6149 38.9588 13.3533 38.8342 13.0944C38.6192 12.6492 38.8038 12.1126 39.249 11.8976C39.6942 11.6817 40.2299 11.8671 40.4458 12.3123C40.5829 12.5936 40.7137 12.8803 40.8382 13.1687C40.8884 13.2834 40.9117 13.4044 40.9117 13.5235ZM40.591 30.1851C40.591 30.315 40.5632 30.4458 40.5032 30.5703C40.367 30.8561 40.2237 31.1383 40.075 31.4151C39.8412 31.8505 39.2983 32.0153 38.862 31.7806C38.4266 31.5468 38.2618 31.0048 38.4956 30.5676C38.6309 30.315 38.7617 30.0579 38.8862 29.7981C39.0994 29.3511 39.6342 29.1621 40.0803 29.3753C40.4028 29.5302 40.591 29.8501 40.591 30.1851ZM38.673 9.60871C38.673 9.88552 38.5458 10.1579 38.3048 10.3334C37.9053 10.6255 37.3445 10.5377 37.0533 10.1372C36.884 9.90434 36.7093 9.67679 36.5293 9.45373C36.2184 9.06762 36.2802 8.50325 36.6663 8.19419C37.0515 7.88423 37.6159 7.94604 37.9259 8.33035C38.1229 8.57581 38.3155 8.82664 38.5019 9.08196C38.6165 9.24052 38.673 9.42506 38.673 9.60871ZM38.1991 34.0139C38.1991 34.2092 38.1355 34.4054 38.0056 34.5693C37.8103 34.8157 37.6096 35.0584 37.4027 35.2967C37.0784 35.6703 36.5122 35.7106 36.1387 35.3863C35.7642 35.0629 35.7257 34.4967 36.0491 34.1232C36.2381 33.9046 36.4227 33.6833 36.6018 33.4576C36.9091 33.0697 37.4726 33.0043 37.8605 33.3116C38.0826 33.488 38.1991 33.7496 38.1991 34.0139ZM35.62 6.28875C35.62 6.49748 35.5474 6.708 35.3987 6.87731C35.0735 7.24998 34.5074 7.2885 34.1347 6.96331C33.9179 6.77429 33.6966 6.59064 33.4718 6.41327C33.0839 6.10421 33.0194 5.54073 33.3258 5.15462C33.633 4.76673 34.1965 4.70133 34.5844 5.0086C34.8316 5.20568 35.0744 5.40635 35.3127 5.61508C35.5161 5.79066 35.62 6.03881 35.62 6.28875ZM35.0198 37.2129C35.0198 37.4754 34.906 37.7343 34.6856 37.9108C34.4402 38.1096 34.1893 38.3022 33.934 38.4886C33.5345 38.7797 32.9737 38.6919 32.6825 38.2915C32.3914 37.892 32.4792 37.3312 32.8787 37.0409C33.1108 36.8716 33.3383 36.696 33.5614 36.5169C33.9466 36.206 34.5109 36.2669 34.8209 36.6512C34.9553 36.8179 35.0198 37.0158 35.0198 37.2129ZM31.9077 3.72398C31.9077 3.86642 31.8736 4.01064 31.8019 4.14591C31.5681 4.58218 31.0253 4.74702 30.589 4.51321C30.3346 4.37704 30.0775 4.24625 29.8177 4.12173C29.3715 3.90852 29.1825 3.3746 29.3957 2.92669C29.6098 2.48056 30.1438 2.29154 30.5908 2.50475C30.8757 2.64091 31.156 2.78425 31.4347 2.93296C31.7357 3.0951 31.9077 3.40417 31.9077 3.72398ZM31.2125 39.6308C31.2125 39.9631 31.027 40.2829 30.7081 40.437C30.4268 40.5732 30.1411 40.7058 29.8526 40.8303C29.3984 41.0265 28.8708 40.8177 28.6746 40.3636C28.4775 39.9103 28.6871 39.3817 29.1404 39.1855C29.4047 39.0709 29.6663 38.9508 29.9243 38.8254C30.3695 38.6104 30.9061 38.7959 31.122 39.2402C31.1838 39.3656 31.2125 39.5 31.2125 39.6308ZM27.7143 2.05146C27.7143 2.12939 27.7035 2.20823 27.682 2.28706C27.5521 2.76454 27.0603 3.04673 26.5828 2.91683C26.3051 2.84158 26.0256 2.7726 25.7425 2.709C25.2597 2.6006 24.9569 2.12043 25.0662 1.63848C25.1755 1.15562 25.6547 0.852833 26.1376 0.961227C26.4449 1.03021 26.7503 1.10635 27.0522 1.18877C27.4518 1.29627 27.7143 1.65819 27.7143 2.05146ZM26.9627 41.1376C26.9627 41.5452 26.6823 41.9142 26.2675 42.0101C25.9629 42.08 25.6547 42.1436 25.3448 42.2018C24.8583 42.2923 24.3907 41.9707 24.3002 41.4842C24.2115 41.0005 24.5314 40.5293 25.0178 40.4397C25.3027 40.3869 25.5849 40.3286 25.8653 40.2641C26.3472 40.153 26.8283 40.454 26.9394 40.936C26.9546 41.0032 26.9627 41.0713 26.9627 41.1376ZM23.2915 1.36166C23.2915 1.3751 23.2915 1.38764 23.2915 1.40108C23.2915 1.89558 22.8347 2.2781 22.3402 2.2575C22.0669 2.24585 21.7847 2.23958 21.5088 2.23958C21.0143 2.23958 20.587 2.0631 20.587 1.56771C20.587 1.07231 20.9624 0.895832 21.4569 0.895832H21.4999C21.8009 0.895832 22.118 0.678143 22.4163 0.690685C22.8983 0.712185 23.2915 0.884186 23.2915 1.36166ZM22.4387 41.8802C22.4387 42.3756 22.0804 43 21.5859 43H21.4999C21.1836 43 20.8692 42.7689 20.5565 42.7554C20.0629 42.7348 19.6957 42.2063 19.701 41.7091C19.7225 41.2146 20.1409 40.7756 20.6354 40.7971C20.922 40.8097 21.2105 40.9002 21.4999 40.9002C21.9944 40.9002 22.4387 41.3848 22.4387 41.8802ZM18.7568 1.67162C18.7568 2.09625 18.454 2.47339 18.0213 2.55133C17.7374 2.60419 17.4552 2.66062 17.1757 2.72512C16.6937 2.8362 16.2127 2.53521 16.1016 2.05325C15.9941 1.56681 16.2915 1.08933 16.7734 0.979141C17.0789 0.909267 17.388 0.845665 17.6997 0.789227C18.1862 0.699646 18.6529 1.02304 18.7416 1.51037C18.7523 1.56502 18.7568 1.61877 18.7568 1.67162ZM17.9129 41.1546C17.9129 41.2209 17.9058 41.2872 17.8905 41.3553C17.7804 41.8372 17.2993 42.1391 16.8173 42.0289C16.5101 41.959 16.2046 41.882 15.9027 41.7987C15.4252 41.6679 15.1448 41.1761 15.2756 40.6977C15.4064 40.2211 15.8991 39.9398 16.3766 40.0715C16.6543 40.1477 16.9338 40.2175 17.216 40.282C17.6317 40.377 17.9129 40.7461 17.9129 41.1546ZM14.4389 2.97416C14.4389 3.32085 14.2355 3.65141 13.8969 3.79744C13.6327 3.91121 13.372 4.03035 13.1131 4.15487C12.6678 4.37077 12.1321 4.18533 11.9162 3.7401C11.6994 3.29398 11.8849 2.75917 12.331 2.54327C12.6132 2.40621 12.8999 2.27452 13.1892 2.15089C13.6443 1.9556 14.171 2.16612 14.3663 2.62031C14.4147 2.73677 14.4389 2.85592 14.4389 2.97416ZM13.6533 39.6675C13.6533 39.7983 13.6246 39.93 13.5646 40.0554C13.3496 40.5015 12.8148 40.6887 12.3686 40.4746C12.0847 40.3376 11.8034 40.1942 11.5265 40.0455C11.0912 39.8108 10.9272 39.2697 11.161 38.8326C11.3949 38.3963 11.9386 38.2324 12.374 38.4671C12.6284 38.6033 12.8855 38.7349 13.1462 38.8595C13.4669 39.0144 13.6533 39.3342 13.6533 39.6675ZM10.5223 5.20927C10.5223 5.48608 10.3942 5.75842 10.1541 5.934C9.92121 6.10331 9.69278 6.27889 9.46882 6.45806C9.08271 6.76802 8.51834 6.70531 8.20928 6.31921C7.89932 5.93221 7.96382 5.36783 8.34903 5.06056C8.59448 4.86348 8.84442 4.67266 9.09884 4.48633C9.49838 4.19519 10.0592 4.28298 10.3503 4.68341C10.4668 4.84198 10.5223 5.02652 10.5223 5.20927ZM9.83342 37.2649C9.83342 37.4611 9.76982 37.6572 9.63813 37.823C9.32996 38.21 8.76559 38.2727 8.37948 37.9636C8.13313 37.7674 7.89125 37.5659 7.65386 37.358C7.2803 37.032 7.24267 36.4658 7.56965 36.094C7.89484 35.7214 8.461 35.6837 8.83278 36.0089C9.04957 36.1988 9.27084 36.3834 9.49569 36.5634C9.71786 36.7408 9.83342 37.0015 9.83342 37.2649ZM7.19788 8.25958C7.19788 8.46921 7.12442 8.68063 6.97571 8.84994C6.78669 9.06583 6.60215 9.28621 6.42298 9.51196C6.11482 9.89896 5.55134 9.96256 5.16434 9.6544C4.77734 9.34623 4.71284 8.78365 5.0219 8.39575C5.21898 8.14939 5.42055 7.90573 5.62838 7.66833C5.95446 7.29656 6.52063 7.25893 6.8924 7.58502C7.09486 7.76239 7.19788 8.01054 7.19788 8.25958ZM6.64157 34.073C6.64157 34.3364 6.5269 34.5971 6.30563 34.7736C5.91863 35.0826 5.35515 35.0199 5.04609 34.6329C4.8499 34.3884 4.65909 34.1375 4.47365 33.884C4.18161 33.4845 4.2703 32.9246 4.66894 32.6325C5.06848 32.3405 5.62928 32.4274 5.92042 32.8278C6.08973 33.0607 6.26532 33.2901 6.44538 33.5158C6.57796 33.6797 6.64157 33.8768 6.64157 34.073ZM4.62953 11.9719C4.62953 12.1152 4.59459 12.2613 4.52203 12.3965C4.38586 12.6492 4.25507 12.9063 4.13055 13.1661C3.91644 13.6113 3.38073 13.7994 2.9355 13.5853C2.48938 13.3712 2.30215 12.8355 2.51625 12.3894C2.65332 12.1054 2.79665 11.8232 2.94625 11.5464C3.18096 11.111 3.72473 10.948 4.16011 11.1836C4.46021 11.3448 4.62953 11.6539 4.62953 11.9719ZM4.23625 30.2577C4.23625 30.5909 4.04992 30.9107 3.731 31.0648C3.28578 31.2798 2.75007 31.0935 2.53417 30.6482C2.398 30.3661 2.26721 30.0794 2.14269 29.79C1.9474 29.335 2.15703 28.8082 2.613 28.6138C3.06719 28.4185 3.59394 28.6299 3.78923 29.0832C3.903 29.3484 4.02215 29.61 4.14667 29.868C4.20848 29.9943 4.23625 30.1278 4.23625 30.2577ZM2.95432 16.1599C2.95432 16.2388 2.94357 16.3185 2.92207 16.3982C2.84592 16.6759 2.77605 16.9545 2.71334 17.2358C2.60405 17.7187 2.12478 18.0215 1.64192 17.9131C1.15907 17.8047 0.857171 17.3254 0.965567 16.8426C1.03544 16.5335 1.11159 16.228 1.1949 15.9252C1.32569 15.4486 1.8184 15.1674 2.29588 15.2981C2.69273 15.4056 2.95432 15.7676 2.95432 16.1599ZM2.74469 26.0042C2.74469 26.4127 2.4634 26.7818 2.04863 26.8768C1.56578 26.987 1.08561 26.6851 0.975421 26.2031C0.905546 25.8967 0.842838 25.5877 0.7864 25.2786C0.692338 24.7868 1.022 24.3255 1.50755 24.2368C1.99398 24.1481 2.46071 24.4724 2.5494 24.9588C2.60136 25.2419 2.65869 25.525 2.7223 25.8045C2.73753 25.8717 2.74469 25.938 2.74469 26.0042ZM2.68736 20.6167C2.68736 20.6301 2.68736 20.6427 2.68736 20.6561C2.68736 20.9365 2.45444 21.2178 2.45444 21.5C2.45444 21.9954 2.16957 22.4075 1.67507 22.4075C1.18057 22.4075 0.895692 22.0169 0.895692 21.5215V21.5C0.895692 21.1909 0.6789 20.8837 0.691442 20.5791C0.712942 20.0846 1.23342 19.7021 1.72792 19.7227C2.20898 19.7433 2.68736 20.1392 2.68736 20.6167Z"/>
</mask>
<path d="M42.9999 21.4364V21.5C42.9999 21.7938 42.7696 22.0859 42.7571 22.377C42.7365 22.8715 42.2062 23.2549 41.7117 23.2343C41.2172 23.2137 40.7836 22.7586 40.7988 22.3018C40.8104 22.0357 40.7872 21.7679 40.7872 21.5C40.7872 21.0046 41.3981 20.5728 41.8926 20.5728C42.3871 20.5728 42.9999 20.941 42.9999 21.4364ZM42.2205 17.8405C42.2205 18.2651 41.9186 18.6414 41.4868 18.7202C41.0004 18.8098 40.5336 18.4873 40.444 18.0009C40.3912 17.7169 40.333 17.4347 40.2685 17.1543C40.1583 16.6724 40.4584 16.1922 40.9403 16.0811C41.4223 15.97 41.9034 16.271 42.0144 16.7539C42.0852 17.0594 42.1488 17.3675 42.2053 17.6775C42.216 17.7321 42.2205 17.7868 42.2205 17.8405ZM42.0655 25.9191C42.0655 25.9836 42.0583 26.0499 42.044 26.1162C41.975 26.4235 41.8998 26.729 41.8174 27.0318C41.6884 27.5092 41.1965 27.7923 40.7191 27.6633C40.2407 27.5334 39.9603 27.038 40.0875 26.5641C40.1628 26.2846 40.2326 26.006 40.2953 25.7239C40.4037 25.241 40.8821 24.9373 41.365 25.0457C41.7824 25.1389 42.0655 25.5089 42.0655 25.9191ZM40.9117 13.5235C40.9117 13.8702 40.7092 14.1999 40.3706 14.3459C39.9164 14.5421 39.3888 14.3324 39.1935 13.8791C39.0797 13.6149 38.9588 13.3533 38.8342 13.0944C38.6192 12.6492 38.8038 12.1126 39.249 11.8976C39.6942 11.6817 40.2299 11.8671 40.4458 12.3123C40.5829 12.5936 40.7137 12.8803 40.8382 13.1687C40.8884 13.2834 40.9117 13.4044 40.9117 13.5235ZM40.591 30.1851C40.591 30.315 40.5632 30.4458 40.5032 30.5703C40.367 30.8561 40.2237 31.1383 40.075 31.4151C39.8412 31.8505 39.2983 32.0153 38.862 31.7806C38.4266 31.5468 38.2618 31.0048 38.4956 30.5676C38.6309 30.315 38.7617 30.0579 38.8862 29.7981C39.0994 29.3511 39.6342 29.1621 40.0803 29.3753C40.4028 29.5302 40.591 29.8501 40.591 30.1851ZM38.673 9.60871C38.673 9.88552 38.5458 10.1579 38.3048 10.3334C37.9053 10.6255 37.3445 10.5377 37.0533 10.1372C36.884 9.90434 36.7093 9.67679 36.5293 9.45373C36.2184 9.06762 36.2802 8.50325 36.6663 8.19419C37.0515 7.88423 37.6159 7.94604 37.9259 8.33035C38.1229 8.57581 38.3155 8.82664 38.5019 9.08196C38.6165 9.24052 38.673 9.42506 38.673 9.60871ZM38.1991 34.0139C38.1991 34.2092 38.1355 34.4054 38.0056 34.5693C37.8103 34.8157 37.6096 35.0584 37.4027 35.2967C37.0784 35.6703 36.5122 35.7106 36.1387 35.3863C35.7642 35.0629 35.7257 34.4967 36.0491 34.1232C36.2381 33.9046 36.4227 33.6833 36.6018 33.4576C36.9091 33.0697 37.4726 33.0043 37.8605 33.3116C38.0826 33.488 38.1991 33.7496 38.1991 34.0139ZM35.62 6.28875C35.62 6.49748 35.5474 6.708 35.3987 6.87731C35.0735 7.24998 34.5074 7.2885 34.1347 6.96331C33.9179 6.77429 33.6966 6.59064 33.4718 6.41327C33.0839 6.10421 33.0194 5.54073 33.3258 5.15462C33.633 4.76673 34.1965 4.70133 34.5844 5.0086C34.8316 5.20568 35.0744 5.40635 35.3127 5.61508C35.5161 5.79066 35.62 6.03881 35.62 6.28875ZM35.0198 37.2129C35.0198 37.4754 34.906 37.7343 34.6856 37.9108C34.4402 38.1096 34.1893 38.3022 33.934 38.4886C33.5345 38.7797 32.9737 38.6919 32.6825 38.2915C32.3914 37.892 32.4792 37.3312 32.8787 37.0409C33.1108 36.8716 33.3383 36.696 33.5614 36.5169C33.9466 36.206 34.5109 36.2669 34.8209 36.6512C34.9553 36.8179 35.0198 37.0158 35.0198 37.2129ZM31.9077 3.72398C31.9077 3.86642 31.8736 4.01064 31.8019 4.14591C31.5681 4.58218 31.0253 4.74702 30.589 4.51321C30.3346 4.37704 30.0775 4.24625 29.8177 4.12173C29.3715 3.90852 29.1825 3.3746 29.3957 2.92669C29.6098 2.48056 30.1438 2.29154 30.5908 2.50475C30.8757 2.64091 31.156 2.78425 31.4347 2.93296C31.7357 3.0951 31.9077 3.40417 31.9077 3.72398ZM31.2125 39.6308C31.2125 39.9631 31.027 40.2829 30.7081 40.437C30.4268 40.5732 30.1411 40.7058 29.8526 40.8303C29.3984 41.0265 28.8708 40.8177 28.6746 40.3636C28.4775 39.9103 28.6871 39.3817 29.1404 39.1855C29.4047 39.0709 29.6663 38.9508 29.9243 38.8254C30.3695 38.6104 30.9061 38.7959 31.122 39.2402C31.1838 39.3656 31.2125 39.5 31.2125 39.6308ZM27.7143 2.05146C27.7143 2.12939 27.7035 2.20823 27.682 2.28706C27.5521 2.76454 27.0603 3.04673 26.5828 2.91683C26.3051 2.84158 26.0256 2.7726 25.7425 2.709C25.2597 2.6006 24.9569 2.12043 25.0662 1.63848C25.1755 1.15562 25.6547 0.852833 26.1376 0.961227C26.4449 1.03021 26.7503 1.10635 27.0522 1.18877C27.4518 1.29627 27.7143 1.65819 27.7143 2.05146ZM26.9627 41.1376C26.9627 41.5452 26.6823 41.9142 26.2675 42.0101C25.9629 42.08 25.6547 42.1436 25.3448 42.2018C24.8583 42.2923 24.3907 41.9707 24.3002 41.4842C24.2115 41.0005 24.5314 40.5293 25.0178 40.4397C25.3027 40.3869 25.5849 40.3286 25.8653 40.2641C26.3472 40.153 26.8283 40.454 26.9394 40.936C26.9546 41.0032 26.9627 41.0713 26.9627 41.1376ZM23.2915 1.36166C23.2915 1.3751 23.2915 1.38764 23.2915 1.40108C23.2915 1.89558 22.8347 2.2781 22.3402 2.2575C22.0669 2.24585 21.7847 2.23958 21.5088 2.23958C21.0143 2.23958 20.587 2.0631 20.587 1.56771C20.587 1.07231 20.9624 0.895832 21.4569 0.895832H21.4999C21.8009 0.895832 22.118 0.678143 22.4163 0.690685C22.8983 0.712185 23.2915 0.884186 23.2915 1.36166ZM22.4387 41.8802C22.4387 42.3756 22.0804 43 21.5859 43H21.4999C21.1836 43 20.8692 42.7689 20.5565 42.7554C20.0629 42.7348 19.6957 42.2063 19.701 41.7091C19.7225 41.2146 20.1409 40.7756 20.6354 40.7971C20.922 40.8097 21.2105 40.9002 21.4999 40.9002C21.9944 40.9002 22.4387 41.3848 22.4387 41.8802ZM18.7568 1.67162C18.7568 2.09625 18.454 2.47339 18.0213 2.55133C17.7374 2.60419 17.4552 2.66062 17.1757 2.72512C16.6937 2.8362 16.2127 2.53521 16.1016 2.05325C15.9941 1.56681 16.2915 1.08933 16.7734 0.979141C17.0789 0.909267 17.388 0.845665 17.6997 0.789227C18.1862 0.699646 18.6529 1.02304 18.7416 1.51037C18.7523 1.56502 18.7568 1.61877 18.7568 1.67162ZM17.9129 41.1546C17.9129 41.2209 17.9058 41.2872 17.8905 41.3553C17.7804 41.8372 17.2993 42.1391 16.8173 42.0289C16.5101 41.959 16.2046 41.882 15.9027 41.7987C15.4252 41.6679 15.1448 41.1761 15.2756 40.6977C15.4064 40.2211 15.8991 39.9398 16.3766 40.0715C16.6543 40.1477 16.9338 40.2175 17.216 40.282C17.6317 40.377 17.9129 40.7461 17.9129 41.1546ZM14.4389 2.97416C14.4389 3.32085 14.2355 3.65141 13.8969 3.79744C13.6327 3.91121 13.372 4.03035 13.1131 4.15487C12.6678 4.37077 12.1321 4.18533 11.9162 3.7401C11.6994 3.29398 11.8849 2.75917 12.331 2.54327C12.6132 2.40621 12.8999 2.27452 13.1892 2.15089C13.6443 1.9556 14.171 2.16612 14.3663 2.62031C14.4147 2.73677 14.4389 2.85592 14.4389 2.97416ZM13.6533 39.6675C13.6533 39.7983 13.6246 39.93 13.5646 40.0554C13.3496 40.5015 12.8148 40.6887 12.3686 40.4746C12.0847 40.3376 11.8034 40.1942 11.5265 40.0455C11.0912 39.8108 10.9272 39.2697 11.161 38.8326C11.3949 38.3963 11.9386 38.2324 12.374 38.4671C12.6284 38.6033 12.8855 38.7349 13.1462 38.8595C13.4669 39.0144 13.6533 39.3342 13.6533 39.6675ZM10.5223 5.20927C10.5223 5.48608 10.3942 5.75842 10.1541 5.934C9.92121 6.10331 9.69278 6.27889 9.46882 6.45806C9.08271 6.76802 8.51834 6.70531 8.20928 6.31921C7.89932 5.93221 7.96382 5.36783 8.34903 5.06056C8.59448 4.86348 8.84442 4.67266 9.09884 4.48633C9.49838 4.19519 10.0592 4.28298 10.3503 4.68341C10.4668 4.84198 10.5223 5.02652 10.5223 5.20927ZM9.83342 37.2649C9.83342 37.4611 9.76982 37.6572 9.63813 37.823C9.32996 38.21 8.76559 38.2727 8.37948 37.9636C8.13313 37.7674 7.89125 37.5659 7.65386 37.358C7.2803 37.032 7.24267 36.4658 7.56965 36.094C7.89484 35.7214 8.461 35.6837 8.83278 36.0089C9.04957 36.1988 9.27084 36.3834 9.49569 36.5634C9.71786 36.7408 9.83342 37.0015 9.83342 37.2649ZM7.19788 8.25958C7.19788 8.46921 7.12442 8.68063 6.97571 8.84994C6.78669 9.06583 6.60215 9.28621 6.42298 9.51196C6.11482 9.89896 5.55134 9.96256 5.16434 9.6544C4.77734 9.34623 4.71284 8.78365 5.0219 8.39575C5.21898 8.14939 5.42055 7.90573 5.62838 7.66833C5.95446 7.29656 6.52063 7.25893 6.8924 7.58502C7.09486 7.76239 7.19788 8.01054 7.19788 8.25958ZM6.64157 34.073C6.64157 34.3364 6.5269 34.5971 6.30563 34.7736C5.91863 35.0826 5.35515 35.0199 5.04609 34.6329C4.8499 34.3884 4.65909 34.1375 4.47365 33.884C4.18161 33.4845 4.2703 32.9246 4.66894 32.6325C5.06848 32.3405 5.62928 32.4274 5.92042 32.8278C6.08973 33.0607 6.26532 33.2901 6.44538 33.5158C6.57796 33.6797 6.64157 33.8768 6.64157 34.073ZM4.62953 11.9719C4.62953 12.1152 4.59459 12.2613 4.52203 12.3965C4.38586 12.6492 4.25507 12.9063 4.13055 13.1661C3.91644 13.6113 3.38073 13.7994 2.9355 13.5853C2.48938 13.3712 2.30215 12.8355 2.51625 12.3894C2.65332 12.1054 2.79665 11.8232 2.94625 11.5464C3.18096 11.111 3.72473 10.948 4.16011 11.1836C4.46021 11.3448 4.62953 11.6539 4.62953 11.9719ZM4.23625 30.2577C4.23625 30.5909 4.04992 30.9107 3.731 31.0648C3.28578 31.2798 2.75007 31.0935 2.53417 30.6482C2.398 30.3661 2.26721 30.0794 2.14269 29.79C1.9474 29.335 2.15703 28.8082 2.613 28.6138C3.06719 28.4185 3.59394 28.6299 3.78923 29.0832C3.903 29.3484 4.02215 29.61 4.14667 29.868C4.20848 29.9943 4.23625 30.1278 4.23625 30.2577ZM2.95432 16.1599C2.95432 16.2388 2.94357 16.3185 2.92207 16.3982C2.84592 16.6759 2.77605 16.9545 2.71334 17.2358C2.60405 17.7187 2.12478 18.0215 1.64192 17.9131C1.15907 17.8047 0.857171 17.3254 0.965567 16.8426C1.03544 16.5335 1.11159 16.228 1.1949 15.9252C1.32569 15.4486 1.8184 15.1674 2.29588 15.2981C2.69273 15.4056 2.95432 15.7676 2.95432 16.1599ZM2.74469 26.0042C2.74469 26.4127 2.4634 26.7818 2.04863 26.8768C1.56578 26.987 1.08561 26.6851 0.975421 26.2031C0.905546 25.8967 0.842838 25.5877 0.7864 25.2786C0.692338 24.7868 1.022 24.3255 1.50755 24.2368C1.99398 24.1481 2.46071 24.4724 2.5494 24.9588C2.60136 25.2419 2.65869 25.525 2.7223 25.8045C2.73753 25.8717 2.74469 25.938 2.74469 26.0042ZM2.68736 20.6167C2.68736 20.6301 2.68736 20.6427 2.68736 20.6561C2.68736 20.9365 2.45444 21.2178 2.45444 21.5C2.45444 21.9954 2.16957 22.4075 1.67507 22.4075C1.18057 22.4075 0.895692 22.0169 0.895692 21.5215V21.5C0.895692 21.1909 0.6789 20.8837 0.691442 20.5791C0.712942 20.0846 1.23342 19.7021 1.72792 19.7227C2.20898 19.7433 2.68736 20.1392 2.68736 20.6167Z" fill="#C32B83"/>
<path d="M42.9999 21.4364V21.5C42.9999 21.7938 42.7696 22.0859 42.7571 22.377C42.7365 22.8715 42.2062 23.2549 41.7117 23.2343C41.2172 23.2137 40.7836 22.7586 40.7988 22.3018C40.8104 22.0357 40.7872 21.7679 40.7872 21.5C40.7872 21.0046 41.3981 20.5728 41.8926 20.5728C42.3871 20.5728 42.9999 20.941 42.9999 21.4364ZM42.2205 17.8405C42.2205 18.2651 41.9186 18.6414 41.4868 18.7202C41.0004 18.8098 40.5336 18.4873 40.444 18.0009C40.3912 17.7169 40.333 17.4347 40.2685 17.1543C40.1583 16.6724 40.4584 16.1922 40.9403 16.0811C41.4223 15.97 41.9034 16.271 42.0144 16.7539C42.0852 17.0594 42.1488 17.3675 42.2053 17.6775C42.216 17.7321 42.2205 17.7868 42.2205 17.8405ZM42.0655 25.9191C42.0655 25.9836 42.0583 26.0499 42.044 26.1162C41.975 26.4235 41.8998 26.729 41.8174 27.0318C41.6884 27.5092 41.1965 27.7923 40.7191 27.6633C40.2407 27.5334 39.9603 27.038 40.0875 26.5641C40.1628 26.2846 40.2326 26.006 40.2953 25.7239C40.4037 25.241 40.8821 24.9373 41.365 25.0457C41.7824 25.1389 42.0655 25.5089 42.0655 25.9191ZM40.9117 13.5235C40.9117 13.8702 40.7092 14.1999 40.3706 14.3459C39.9164 14.5421 39.3888 14.3324 39.1935 13.8791C39.0797 13.6149 38.9588 13.3533 38.8342 13.0944C38.6192 12.6492 38.8038 12.1126 39.249 11.8976C39.6942 11.6817 40.2299 11.8671 40.4458 12.3123C40.5829 12.5936 40.7137 12.8803 40.8382 13.1687C40.8884 13.2834 40.9117 13.4044 40.9117 13.5235ZM40.591 30.1851C40.591 30.315 40.5632 30.4458 40.5032 30.5703C40.367 30.8561 40.2237 31.1383 40.075 31.4151C39.8412 31.8505 39.2983 32.0153 38.862 31.7806C38.4266 31.5468 38.2618 31.0048 38.4956 30.5676C38.6309 30.315 38.7617 30.0579 38.8862 29.7981C39.0994 29.3511 39.6342 29.1621 40.0803 29.3753C40.4028 29.5302 40.591 29.8501 40.591 30.1851ZM38.673 9.60871C38.673 9.88552 38.5458 10.1579 38.3048 10.3334C37.9053 10.6255 37.3445 10.5377 37.0533 10.1372C36.884 9.90434 36.7093 9.67679 36.5293 9.45373C36.2184 9.06762 36.2802 8.50325 36.6663 8.19419C37.0515 7.88423 37.6159 7.94604 37.9259 8.33035C38.1229 8.57581 38.3155 8.82664 38.5019 9.08196C38.6165 9.24052 38.673 9.42506 38.673 9.60871ZM38.1991 34.0139C38.1991 34.2092 38.1355 34.4054 38.0056 34.5693C37.8103 34.8157 37.6096 35.0584 37.4027 35.2967C37.0784 35.6703 36.5122 35.7106 36.1387 35.3863C35.7642 35.0629 35.7257 34.4967 36.0491 34.1232C36.2381 33.9046 36.4227 33.6833 36.6018 33.4576C36.9091 33.0697 37.4726 33.0043 37.8605 33.3116C38.0826 33.488 38.1991 33.7496 38.1991 34.0139ZM35.62 6.28875C35.62 6.49748 35.5474 6.708 35.3987 6.87731C35.0735 7.24998 34.5074 7.2885 34.1347 6.96331C33.9179 6.77429 33.6966 6.59064 33.4718 6.41327C33.0839 6.10421 33.0194 5.54073 33.3258 5.15462C33.633 4.76673 34.1965 4.70133 34.5844 5.0086C34.8316 5.20568 35.0744 5.40635 35.3127 5.61508C35.5161 5.79066 35.62 6.03881 35.62 6.28875ZM35.0198 37.2129C35.0198 37.4754 34.906 37.7343 34.6856 37.9108C34.4402 38.1096 34.1893 38.3022 33.934 38.4886C33.5345 38.7797 32.9737 38.6919 32.6825 38.2915C32.3914 37.892 32.4792 37.3312 32.8787 37.0409C33.1108 36.8716 33.3383 36.696 33.5614 36.5169C33.9466 36.206 34.5109 36.2669 34.8209 36.6512C34.9553 36.8179 35.0198 37.0158 35.0198 37.2129ZM31.9077 3.72398C31.9077 3.86642 31.8736 4.01064 31.8019 4.14591C31.5681 4.58218 31.0253 4.74702 30.589 4.51321C30.3346 4.37704 30.0775 4.24625 29.8177 4.12173C29.3715 3.90852 29.1825 3.3746 29.3957 2.92669C29.6098 2.48056 30.1438 2.29154 30.5908 2.50475C30.8757 2.64091 31.156 2.78425 31.4347 2.93296C31.7357 3.0951 31.9077 3.40417 31.9077 3.72398ZM31.2125 39.6308C31.2125 39.9631 31.027 40.2829 30.7081 40.437C30.4268 40.5732 30.1411 40.7058 29.8526 40.8303C29.3984 41.0265 28.8708 40.8177 28.6746 40.3636C28.4775 39.9103 28.6871 39.3817 29.1404 39.1855C29.4047 39.0709 29.6663 38.9508 29.9243 38.8254C30.3695 38.6104 30.9061 38.7959 31.122 39.2402C31.1838 39.3656 31.2125 39.5 31.2125 39.6308ZM27.7143 2.05146C27.7143 2.12939 27.7035 2.20823 27.682 2.28706C27.5521 2.76454 27.0603 3.04673 26.5828 2.91683C26.3051 2.84158 26.0256 2.7726 25.7425 2.709C25.2597 2.6006 24.9569 2.12043 25.0662 1.63848C25.1755 1.15562 25.6547 0.852833 26.1376 0.961227C26.4449 1.03021 26.7503 1.10635 27.0522 1.18877C27.4518 1.29627 27.7143 1.65819 27.7143 2.05146ZM26.9627 41.1376C26.9627 41.5452 26.6823 41.9142 26.2675 42.0101C25.9629 42.08 25.6547 42.1436 25.3448 42.2018C24.8583 42.2923 24.3907 41.9707 24.3002 41.4842C24.2115 41.0005 24.5314 40.5293 25.0178 40.4397C25.3027 40.3869 25.5849 40.3286 25.8653 40.2641C26.3472 40.153 26.8283 40.454 26.9394 40.936C26.9546 41.0032 26.9627 41.0713 26.9627 41.1376ZM23.2915 1.36166C23.2915 1.3751 23.2915 1.38764 23.2915 1.40108C23.2915 1.89558 22.8347 2.2781 22.3402 2.2575C22.0669 2.24585 21.7847 2.23958 21.5088 2.23958C21.0143 2.23958 20.587 2.0631 20.587 1.56771C20.587 1.07231 20.9624 0.895832 21.4569 0.895832H21.4999C21.8009 0.895832 22.118 0.678143 22.4163 0.690685C22.8983 0.712185 23.2915 0.884186 23.2915 1.36166ZM22.4387 41.8802C22.4387 42.3756 22.0804 43 21.5859 43H21.4999C21.1836 43 20.8692 42.7689 20.5565 42.7554C20.0629 42.7348 19.6957 42.2063 19.701 41.7091C19.7225 41.2146 20.1409 40.7756 20.6354 40.7971C20.922 40.8097 21.2105 40.9002 21.4999 40.9002C21.9944 40.9002 22.4387 41.3848 22.4387 41.8802ZM18.7568 1.67162C18.7568 2.09625 18.454 2.47339 18.0213 2.55133C17.7374 2.60419 17.4552 2.66062 17.1757 2.72512C16.6937 2.8362 16.2127 2.53521 16.1016 2.05325C15.9941 1.56681 16.2915 1.08933 16.7734 0.979141C17.0789 0.909267 17.388 0.845665 17.6997 0.789227C18.1862 0.699646 18.6529 1.02304 18.7416 1.51037C18.7523 1.56502 18.7568 1.61877 18.7568 1.67162ZM17.9129 41.1546C17.9129 41.2209 17.9058 41.2872 17.8905 41.3553C17.7804 41.8372 17.2993 42.1391 16.8173 42.0289C16.5101 41.959 16.2046 41.882 15.9027 41.7987C15.4252 41.6679 15.1448 41.1761 15.2756 40.6977C15.4064 40.2211 15.8991 39.9398 16.3766 40.0715C16.6543 40.1477 16.9338 40.2175 17.216 40.282C17.6317 40.377 17.9129 40.7461 17.9129 41.1546ZM14.4389 2.97416C14.4389 3.32085 14.2355 3.65141 13.8969 3.79744C13.6327 3.91121 13.372 4.03035 13.1131 4.15487C12.6678 4.37077 12.1321 4.18533 11.9162 3.7401C11.6994 3.29398 11.8849 2.75917 12.331 2.54327C12.6132 2.40621 12.8999 2.27452 13.1892 2.15089C13.6443 1.9556 14.171 2.16612 14.3663 2.62031C14.4147 2.73677 14.4389 2.85592 14.4389 2.97416ZM13.6533 39.6675C13.6533 39.7983 13.6246 39.93 13.5646 40.0554C13.3496 40.5015 12.8148 40.6887 12.3686 40.4746C12.0847 40.3376 11.8034 40.1942 11.5265 40.0455C11.0912 39.8108 10.9272 39.2697 11.161 38.8326C11.3949 38.3963 11.9386 38.2324 12.374 38.4671C12.6284 38.6033 12.8855 38.7349 13.1462 38.8595C13.4669 39.0144 13.6533 39.3342 13.6533 39.6675ZM10.5223 5.20927C10.5223 5.48608 10.3942 5.75842 10.1541 5.934C9.92121 6.10331 9.69278 6.27889 9.46882 6.45806C9.08271 6.76802 8.51834 6.70531 8.20928 6.31921C7.89932 5.93221 7.96382 5.36783 8.34903 5.06056C8.59448 4.86348 8.84442 4.67266 9.09884 4.48633C9.49838 4.19519 10.0592 4.28298 10.3503 4.68341C10.4668 4.84198 10.5223 5.02652 10.5223 5.20927ZM9.83342 37.2649C9.83342 37.4611 9.76982 37.6572 9.63813 37.823C9.32996 38.21 8.76559 38.2727 8.37948 37.9636C8.13313 37.7674 7.89125 37.5659 7.65386 37.358C7.2803 37.032 7.24267 36.4658 7.56965 36.094C7.89484 35.7214 8.461 35.6837 8.83278 36.0089C9.04957 36.1988 9.27084 36.3834 9.49569 36.5634C9.71786 36.7408 9.83342 37.0015 9.83342 37.2649ZM7.19788 8.25958C7.19788 8.46921 7.12442 8.68063 6.97571 8.84994C6.78669 9.06583 6.60215 9.28621 6.42298 9.51196C6.11482 9.89896 5.55134 9.96256 5.16434 9.6544C4.77734 9.34623 4.71284 8.78365 5.0219 8.39575C5.21898 8.14939 5.42055 7.90573 5.62838 7.66833C5.95446 7.29656 6.52063 7.25893 6.8924 7.58502C7.09486 7.76239 7.19788 8.01054 7.19788 8.25958ZM6.64157 34.073C6.64157 34.3364 6.5269 34.5971 6.30563 34.7736C5.91863 35.0826 5.35515 35.0199 5.04609 34.6329C4.8499 34.3884 4.65909 34.1375 4.47365 33.884C4.18161 33.4845 4.2703 32.9246 4.66894 32.6325C5.06848 32.3405 5.62928 32.4274 5.92042 32.8278C6.08973 33.0607 6.26532 33.2901 6.44538 33.5158C6.57796 33.6797 6.64157 33.8768 6.64157 34.073ZM4.62953 11.9719C4.62953 12.1152 4.59459 12.2613 4.52203 12.3965C4.38586 12.6492 4.25507 12.9063 4.13055 13.1661C3.91644 13.6113 3.38073 13.7994 2.9355 13.5853C2.48938 13.3712 2.30215 12.8355 2.51625 12.3894C2.65332 12.1054 2.79665 11.8232 2.94625 11.5464C3.18096 11.111 3.72473 10.948 4.16011 11.1836C4.46021 11.3448 4.62953 11.6539 4.62953 11.9719ZM4.23625 30.2577C4.23625 30.5909 4.04992 30.9107 3.731 31.0648C3.28578 31.2798 2.75007 31.0935 2.53417 30.6482C2.398 30.3661 2.26721 30.0794 2.14269 29.79C1.9474 29.335 2.15703 28.8082 2.613 28.6138C3.06719 28.4185 3.59394 28.6299 3.78923 29.0832C3.903 29.3484 4.02215 29.61 4.14667 29.868C4.20848 29.9943 4.23625 30.1278 4.23625 30.2577ZM2.95432 16.1599C2.95432 16.2388 2.94357 16.3185 2.92207 16.3982C2.84592 16.6759 2.77605 16.9545 2.71334 17.2358C2.60405 17.7187 2.12478 18.0215 1.64192 17.9131C1.15907 17.8047 0.857171 17.3254 0.965567 16.8426C1.03544 16.5335 1.11159 16.228 1.1949 15.9252C1.32569 15.4486 1.8184 15.1674 2.29588 15.2981C2.69273 15.4056 2.95432 15.7676 2.95432 16.1599ZM2.74469 26.0042C2.74469 26.4127 2.4634 26.7818 2.04863 26.8768C1.56578 26.987 1.08561 26.6851 0.975421 26.2031C0.905546 25.8967 0.842838 25.5877 0.7864 25.2786C0.692338 24.7868 1.022 24.3255 1.50755 24.2368C1.99398 24.1481 2.46071 24.4724 2.5494 24.9588C2.60136 25.2419 2.65869 25.525 2.7223 25.8045C2.73753 25.8717 2.74469 25.938 2.74469 26.0042ZM2.68736 20.6167C2.68736 20.6301 2.68736 20.6427 2.68736 20.6561C2.68736 20.9365 2.45444 21.2178 2.45444 21.5C2.45444 21.9954 2.16957 22.4075 1.67507 22.4075C1.18057 22.4075 0.895692 22.0169 0.895692 21.5215V21.5C0.895692 21.1909 0.6789 20.8837 0.691442 20.5791C0.712942 20.0846 1.23342 19.7021 1.72792 19.7227C2.20898 19.7433 2.68736 20.1392 2.68736 20.6167Z" stroke="#C32B83" mask="url(#path-2-outside-1)"/>
<path d="M33.1455 22.6458C33.7779 22.6458 34.2913 22.1336 34.2913 21.5C34.2913 20.8664 33.7779 20.3542 33.1455 20.3542H7.16634C6.53393 20.3542 6.02051 20.8664 6.02051 21.5C6.02051 22.1336 6.53393 22.6458 7.16634 22.6458H33.1455Z" fill="#C32B83" stroke="#C32B83" stroke-width="0.5"/>
<path d="M31.5256 21.5L22.2012 30.8253C22.2012 30.8253 22.2012 30.8253 22.2012 30.8253C21.7533 31.2732 21.7533 31.9977 22.2012 32.4456C22.6491 32.8935 23.3735 32.8935 23.8214 32.4456L23.8214 32.4456L33.956 22.3101C33.956 22.3101 33.956 22.3101 33.956 22.3101C34.1793 22.0868 34.2917 21.7931 34.2917 21.5C34.2917 21.2069 34.1793 20.9132 33.956 20.6899L23.8214 10.5553C23.3735 10.1074 22.6491 10.1074 22.2012 10.5553C21.7533 11.0032 21.7533 11.7277 22.2012 12.1756L31.5256 21.5Z" fill="#C32B83" stroke="#C32B83" stroke-width="0.5"/>
</g>
<defs>
<clipPath id="clip0">
<rect y="43" width="43" height="43" transform="rotate(-90 0 43)" fill="white"/>
</clipPath>
</defs>
</svg>
