<svg width="43" height="43" viewBox="0 0 43 43" fill="none" xmlns="http://www.w3.org/2000/svg">
<g clip-path="url(#clip0)">
<mask id="path-2-outside-1" maskUnits="userSpaceOnUse" x="-0.690918" y="-1" width="44" height="44" fill="black">
<rect fill="white" x="-0.690918" y="-1" width="44" height="44"/>
<path d="M0.000141144 21.5636V21.5C0.000141144 21.2062 0.23037 20.9141 0.242912 20.623C0.263515 20.1285 0.79385 19.7451 1.28835 19.7657C1.78285 19.7863 2.21643 20.2414 2.2012 20.6982C2.18956 20.9643 2.21285 21.2321 2.21285 21.5C2.21285 21.9954 1.60189 22.4272 1.10739 22.4272C0.612888 22.4272 0.000141144 22.059 0.000141144 21.5636ZM0.779514 25.1595C0.779514 24.7349 1.08141 24.3586 1.5132 24.2798C1.99964 24.1902 2.46637 24.5127 2.55595 24.9991C2.60881 25.2831 2.66703 25.5653 2.73154 25.8457C2.84172 26.3276 2.54162 26.8078 2.05966 26.9189C1.5777 27.03 1.09664 26.729 0.985554 26.2461C0.914783 25.9406 0.851181 25.6325 0.794746 25.3225C0.783997 25.2679 0.779514 25.2132 0.779514 25.1595ZM0.934494 17.0809C0.934494 17.0164 0.941662 16.9501 0.955994 16.8838C1.02497 16.5765 1.10022 16.271 1.18264 15.9682C1.31164 15.4908 1.80346 15.2077 2.28093 15.3367C2.75931 15.4666 3.0397 15.962 2.91249 16.4359C2.83724 16.7154 2.76737 16.994 2.70466 17.2761C2.59627 17.759 2.11789 18.0627 1.63504 17.9543C1.21758 17.8611 0.934494 17.4911 0.934494 17.0809ZM2.08833 29.4765C2.08833 29.1298 2.29079 28.8001 2.62941 28.6541C3.0836 28.4579 3.61124 28.6676 3.80654 29.1209C3.92031 29.3851 4.04124 29.6467 4.16577 29.9056C4.38077 30.3508 4.19622 30.8874 3.751 31.1024C3.30577 31.3183 2.77006 31.1329 2.55416 30.6877C2.4171 30.4064 2.2863 30.1197 2.16179 29.8313C2.11162 29.7166 2.08833 29.5956 2.08833 29.4765ZM2.40903 12.8149C2.40903 12.685 2.43681 12.5542 2.49683 12.4297C2.63299 12.1439 2.77633 11.8617 2.92504 11.5849C3.15885 11.1495 3.70173 10.9847 4.13799 11.2194C4.57337 11.4532 4.7382 11.9952 4.50439 12.4324C4.36912 12.685 4.23833 12.9421 4.11381 13.2019C3.9006 13.6489 3.36578 13.8379 2.91966 13.6247C2.59716 13.4698 2.40903 13.1499 2.40903 12.8149ZM4.32702 33.3913C4.32702 33.1145 4.45422 32.8421 4.69521 32.6666C5.09475 32.3745 5.65554 32.4623 5.94668 32.8628C6.11599 33.0957 6.29068 33.3232 6.47075 33.5463C6.7816 33.9324 6.71979 34.4968 6.33368 34.8058C5.94847 35.1158 5.3841 35.054 5.07414 34.6696C4.87706 34.4242 4.68445 34.1734 4.49812 33.918C4.38345 33.7595 4.32702 33.5749 4.32702 33.3913ZM4.80091 8.9861C4.80091 8.79081 4.86452 8.59463 4.99441 8.43069C5.1897 8.18433 5.39037 7.94156 5.59731 7.70327C5.9216 7.32971 6.48777 7.2894 6.86133 7.61369C7.23579 7.93708 7.27431 8.50325 6.95091 8.87681C6.76189 9.0954 6.57735 9.31667 6.39818 9.54242C6.09091 9.93031 5.52743 9.99571 5.13953 9.68844C4.91737 9.51196 4.80091 9.25038 4.80091 8.9861ZM7.38002 36.7113C7.38002 36.5025 7.45258 36.292 7.60129 36.1227C7.92648 35.75 8.49264 35.7115 8.86531 36.0367C9.0821 36.2257 9.30337 36.4094 9.52822 36.5867C9.91612 36.8958 9.98062 37.4593 9.67424 37.8454C9.36697 38.2333 8.8035 38.2987 8.4156 37.9914C8.16835 37.7943 7.92558 37.5936 7.68729 37.3849C7.48393 37.2093 7.38002 36.9612 7.38002 36.7113ZM7.98022 5.78708C7.98022 5.5246 8.09399 5.26571 8.31437 5.08923C8.55983 4.89035 8.81066 4.69775 9.06597 4.51142C9.46552 4.22027 10.0263 4.30806 10.3175 4.7085C10.6086 5.10804 10.5208 5.66883 10.1213 5.95908C9.88924 6.1284 9.6617 6.30398 9.43864 6.48315C9.05343 6.794 8.48906 6.73308 8.1791 6.34877C8.04472 6.18215 7.98022 5.98417 7.98022 5.78708ZM11.0923 39.276C11.0923 39.1336 11.1264 38.9894 11.1981 38.8541C11.4319 38.4178 11.9747 38.253 12.411 38.4868C12.6654 38.623 12.9225 38.7537 13.1823 38.8783C13.6285 39.0915 13.8175 39.6254 13.6043 40.0733C13.3902 40.5194 12.8562 40.7085 12.4092 40.4953C12.1243 40.3591 11.844 40.2158 11.5653 40.067C11.2643 39.9049 11.0923 39.5958 11.0923 39.276ZM11.7875 3.36923C11.7875 3.03688 11.973 2.71706 12.2919 2.56298C12.5732 2.42681 12.8589 2.29423 13.1474 2.16971C13.6016 1.97352 14.1292 2.18225 14.3254 2.63644C14.5225 3.08973 14.3129 3.61827 13.8596 3.81446C13.5953 3.92913 13.3337 4.04917 13.0757 4.17458C12.6305 4.38958 12.0939 4.20415 11.878 3.75981C11.8162 3.6344 11.7875 3.50002 11.7875 3.36923ZM15.2857 40.9485C15.2857 40.8706 15.2965 40.7918 15.318 40.7129C15.4479 40.2355 15.9397 39.9533 16.4172 40.0832C16.6949 40.1584 16.9744 40.2274 17.2575 40.291C17.7403 40.3994 18.0431 40.8796 17.9338 41.3615C17.8245 41.8444 17.3453 42.1472 16.8624 42.0388C16.5551 41.9698 16.2497 41.8936 15.9478 41.8112C15.5482 41.7037 15.2857 41.3418 15.2857 40.9485ZM16.0373 1.86244C16.0373 1.45483 16.3177 1.08575 16.7325 0.989896C17.0371 0.920021 17.3453 0.856417 17.6552 0.798187C18.1417 0.707708 18.6093 1.02931 18.6998 1.51575C18.7885 1.9995 18.4686 2.47071 17.9822 2.56029C17.6973 2.61315 17.4151 2.67138 17.1347 2.73588C16.6528 2.84696 16.1717 2.54596 16.0606 2.064C16.0454 1.99681 16.0373 1.92873 16.0373 1.86244ZM19.7085 41.6383C19.7085 41.6249 19.7085 41.6124 19.7085 41.5989C19.7085 41.1044 20.1653 40.7219 20.6598 40.7425C20.9331 40.7541 21.2153 40.7604 21.4912 40.7604C21.9857 40.7604 22.413 40.9369 22.413 41.4323C22.413 41.9277 22.0376 42.1042 21.5431 42.1042H21.5001C21.1991 42.1042 20.882 42.3219 20.5837 42.3093C20.1017 42.2878 19.7085 42.1158 19.7085 41.6383ZM20.5613 1.11979C20.5613 0.624396 20.9196 0 21.4141 0L21.5001 0C21.8164 0 22.1308 0.231125 22.4435 0.244563C22.9371 0.265167 23.3043 0.793708 23.299 1.2909C23.2775 1.7854 22.8591 2.22435 22.3646 2.20285C22.078 2.19031 21.7895 2.09983 21.5001 2.09983C21.0056 2.09983 20.5613 1.61519 20.5613 1.11979ZM24.2432 41.3284C24.2432 40.9038 24.546 40.5266 24.9787 40.4487C25.2626 40.3958 25.5448 40.3394 25.8243 40.2749C26.3063 40.1638 26.7873 40.4648 26.8984 40.9468C27.0059 41.4332 26.7085 41.9107 26.2266 42.0209C25.9211 42.0907 25.612 42.1543 25.3003 42.2108C24.8138 42.3004 24.3471 41.977 24.2584 41.4896C24.2477 41.435 24.2432 41.3812 24.2432 41.3284ZM25.0871 1.84542C25.0871 1.77912 25.0942 1.71283 25.1095 1.64475C25.2196 1.16279 25.7007 0.860896 26.1827 0.971083C26.4899 1.04096 26.7954 1.118 27.0973 1.20131C27.5748 1.3321 27.8552 1.82392 27.7244 2.30229C27.5936 2.77888 27.1009 3.06017 26.6234 2.92848C26.3457 2.85233 26.0662 2.78246 25.784 2.71796C25.3683 2.623 25.0871 2.25392 25.0871 1.84542ZM28.5611 40.0258C28.5611 39.6791 28.7645 39.3486 29.1031 39.2026C29.3673 39.0888 29.628 38.9696 29.8869 38.8451C30.3322 38.6292 30.8679 38.8147 31.0838 39.2599C31.3006 39.706 31.1151 40.2408 30.669 40.4567C30.3868 40.5938 30.1001 40.7255 29.8108 40.8491C29.3557 41.0444 28.829 40.8339 28.6337 40.3797C28.5853 40.2632 28.5611 40.1441 28.5611 40.0258ZM29.3467 3.3325C29.3467 3.20171 29.3754 3.07002 29.4354 2.9446C29.6504 2.49848 30.1852 2.31125 30.6314 2.52535C30.9153 2.66242 31.1966 2.80575 31.4735 2.95446C31.9088 3.18917 32.0728 3.73025 31.839 4.16742C31.6051 4.60369 31.0614 4.76763 30.626 4.53292C30.3716 4.39675 30.1145 4.26506 29.8538 4.14054C29.5331 3.98556 29.3467 3.66575 29.3467 3.3325ZM32.4777 37.7907C32.4777 37.5139 32.6058 37.2416 32.8459 37.066C33.0788 36.8967 33.3072 36.7211 33.5312 36.5419C33.9173 36.232 34.4817 36.2947 34.7907 36.6808C35.1007 37.0678 35.0362 37.6322 34.651 37.9394C34.4055 38.1365 34.1556 38.3273 33.9012 38.5137C33.5016 38.8048 32.9408 38.717 32.6497 38.3166C32.5332 38.158 32.4777 37.9735 32.4777 37.7907ZM33.1666 5.73513C33.1666 5.53894 33.2302 5.34275 33.3619 5.17702C33.67 4.79002 34.2344 4.72731 34.6205 5.03638C34.8669 5.23256 35.1087 5.43412 35.3461 5.64196C35.7197 5.96804 35.7573 6.53421 35.4303 6.90598C35.1052 7.27865 34.539 7.31627 34.1672 6.99108C33.9504 6.80117 33.7292 6.61663 33.5043 6.43656C33.2821 6.25919 33.1666 5.9985 33.1666 5.73513ZM35.8021 34.7404C35.8021 34.5308 35.8756 34.3194 36.0243 34.1501C36.2133 33.9342 36.3978 33.7138 36.577 33.488C36.8852 33.101 37.4487 33.0374 37.8357 33.3456C38.2227 33.6538 38.2872 34.2164 37.9781 34.6043C37.781 34.8506 37.5795 35.0943 37.3716 35.3317C37.0455 35.7034 36.4794 35.7411 36.1076 35.415C35.9051 35.2376 35.8021 34.9895 35.8021 34.7404ZM36.3584 8.92698C36.3584 8.6636 36.4731 8.40292 36.6944 8.22644C37.0814 7.91738 37.6448 7.98008 37.9539 8.36708C38.1501 8.61165 38.3409 8.86248 38.5263 9.116C38.8184 9.51554 38.7297 10.0754 38.3311 10.3675C37.9315 10.6595 37.3707 10.5726 37.0796 10.1722C36.9103 9.93927 36.7347 9.70994 36.5546 9.48419C36.422 9.32025 36.3584 9.12317 36.3584 8.92698ZM38.3705 31.0281C38.3705 30.8848 38.4054 30.7387 38.478 30.6035C38.6141 30.3508 38.7449 30.0937 38.8695 29.8339C39.0836 29.3887 39.6193 29.2006 40.0645 29.4147C40.5106 29.6288 40.6978 30.1645 40.4837 30.6106C40.3467 30.8946 40.2033 31.1768 40.0537 31.4536C39.819 31.889 39.2753 32.052 38.8399 31.8164C38.5398 31.6552 38.3705 31.3461 38.3705 31.0281ZM38.7637 12.7423C38.7637 12.4091 38.9501 12.0893 39.269 11.9352C39.7142 11.7202 40.2499 11.9065 40.4658 12.3518C40.602 12.6339 40.7328 12.9206 40.8573 13.21C41.0526 13.665 40.843 14.1918 40.387 14.3862C39.9328 14.5815 39.4061 14.3701 39.2108 13.9168C39.097 13.6516 38.9778 13.39 38.8533 13.132C38.7915 13.0057 38.7637 12.8722 38.7637 12.7423ZM40.0457 26.8401C40.0457 26.7612 40.0564 26.6815 40.0779 26.6018C40.1541 26.3241 40.224 26.0455 40.2867 25.7642C40.396 25.2813 40.8752 24.9785 41.3581 25.0869C41.8409 25.1953 42.1428 25.6746 42.0344 26.1574C41.9646 26.4665 41.8884 26.772 41.8051 27.0748C41.6743 27.5514 41.1816 27.8326 40.7041 27.7019C40.3073 27.5944 40.0457 27.2324 40.0457 26.8401ZM40.2553 16.9958C40.2553 16.5873 40.5366 16.2182 40.9514 16.1232C41.4342 16.013 41.9144 16.3149 42.0246 16.7969C42.0945 17.1033 42.1572 17.4123 42.2136 17.7214C42.3077 18.2132 41.978 18.6745 41.4925 18.7632C41.006 18.8519 40.5393 18.5276 40.4506 18.0412C40.3986 17.7581 40.3413 17.475 40.2777 17.1955C40.2625 17.1283 40.2553 17.062 40.2553 16.9958ZM40.3126 22.3833C40.3126 22.3699 40.3126 22.3573 40.3126 22.3439C40.3126 22.0635 40.5456 21.7822 40.5456 21.5C40.5456 21.0046 40.8304 20.5925 41.3249 20.5925C41.8194 20.5925 42.1043 20.9831 42.1043 21.4785V21.5C42.1043 21.8091 42.3211 22.1163 42.3086 22.4209C42.2871 22.9154 41.7666 23.2979 41.2721 23.2773C40.791 23.2567 40.3126 22.8608 40.3126 22.3833Z"/>
</mask>
<path d="M0.000141144 21.5636V21.5C0.000141144 21.2062 0.23037 20.9141 0.242912 20.623C0.263515 20.1285 0.79385 19.7451 1.28835 19.7657C1.78285 19.7863 2.21643 20.2414 2.2012 20.6982C2.18956 20.9643 2.21285 21.2321 2.21285 21.5C2.21285 21.9954 1.60189 22.4272 1.10739 22.4272C0.612888 22.4272 0.000141144 22.059 0.000141144 21.5636ZM0.779514 25.1595C0.779514 24.7349 1.08141 24.3586 1.5132 24.2798C1.99964 24.1902 2.46637 24.5127 2.55595 24.9991C2.60881 25.2831 2.66703 25.5653 2.73154 25.8457C2.84172 26.3276 2.54162 26.8078 2.05966 26.9189C1.5777 27.03 1.09664 26.729 0.985554 26.2461C0.914783 25.9406 0.851181 25.6325 0.794746 25.3225C0.783997 25.2679 0.779514 25.2132 0.779514 25.1595ZM0.934494 17.0809C0.934494 17.0164 0.941662 16.9501 0.955994 16.8838C1.02497 16.5765 1.10022 16.271 1.18264 15.9682C1.31164 15.4908 1.80346 15.2077 2.28093 15.3367C2.75931 15.4666 3.0397 15.962 2.91249 16.4359C2.83724 16.7154 2.76737 16.994 2.70466 17.2761C2.59627 17.759 2.11789 18.0627 1.63504 17.9543C1.21758 17.8611 0.934494 17.4911 0.934494 17.0809ZM2.08833 29.4765C2.08833 29.1298 2.29079 28.8001 2.62941 28.6541C3.0836 28.4579 3.61124 28.6676 3.80654 29.1209C3.92031 29.3851 4.04124 29.6467 4.16577 29.9056C4.38077 30.3508 4.19622 30.8874 3.751 31.1024C3.30577 31.3183 2.77006 31.1329 2.55416 30.6877C2.4171 30.4064 2.2863 30.1197 2.16179 29.8313C2.11162 29.7166 2.08833 29.5956 2.08833 29.4765ZM2.40903 12.8149C2.40903 12.685 2.43681 12.5542 2.49683 12.4297C2.63299 12.1439 2.77633 11.8617 2.92504 11.5849C3.15885 11.1495 3.70173 10.9847 4.13799 11.2194C4.57337 11.4532 4.7382 11.9952 4.50439 12.4324C4.36912 12.685 4.23833 12.9421 4.11381 13.2019C3.9006 13.6489 3.36578 13.8379 2.91966 13.6247C2.59716 13.4698 2.40903 13.1499 2.40903 12.8149ZM4.32702 33.3913C4.32702 33.1145 4.45422 32.8421 4.69521 32.6666C5.09475 32.3745 5.65554 32.4623 5.94668 32.8628C6.11599 33.0957 6.29068 33.3232 6.47075 33.5463C6.7816 33.9324 6.71979 34.4968 6.33368 34.8058C5.94847 35.1158 5.3841 35.054 5.07414 34.6696C4.87706 34.4242 4.68445 34.1734 4.49812 33.918C4.38345 33.7595 4.32702 33.5749 4.32702 33.3913ZM4.80091 8.9861C4.80091 8.79081 4.86452 8.59463 4.99441 8.43069C5.1897 8.18433 5.39037 7.94156 5.59731 7.70327C5.9216 7.32971 6.48777 7.2894 6.86133 7.61369C7.23579 7.93708 7.27431 8.50325 6.95091 8.87681C6.76189 9.0954 6.57735 9.31667 6.39818 9.54242C6.09091 9.93031 5.52743 9.99571 5.13953 9.68844C4.91737 9.51196 4.80091 9.25038 4.80091 8.9861ZM7.38002 36.7113C7.38002 36.5025 7.45258 36.292 7.60129 36.1227C7.92648 35.75 8.49264 35.7115 8.86531 36.0367C9.0821 36.2257 9.30337 36.4094 9.52822 36.5867C9.91612 36.8958 9.98062 37.4593 9.67424 37.8454C9.36697 38.2333 8.8035 38.2987 8.4156 37.9914C8.16835 37.7943 7.92558 37.5936 7.68729 37.3849C7.48393 37.2093 7.38002 36.9612 7.38002 36.7113ZM7.98022 5.78708C7.98022 5.5246 8.09399 5.26571 8.31437 5.08923C8.55983 4.89035 8.81066 4.69775 9.06597 4.51142C9.46552 4.22027 10.0263 4.30806 10.3175 4.7085C10.6086 5.10804 10.5208 5.66883 10.1213 5.95908C9.88924 6.1284 9.6617 6.30398 9.43864 6.48315C9.05343 6.794 8.48906 6.73308 8.1791 6.34877C8.04472 6.18215 7.98022 5.98417 7.98022 5.78708ZM11.0923 39.276C11.0923 39.1336 11.1264 38.9894 11.1981 38.8541C11.4319 38.4178 11.9747 38.253 12.411 38.4868C12.6654 38.623 12.9225 38.7537 13.1823 38.8783C13.6285 39.0915 13.8175 39.6254 13.6043 40.0733C13.3902 40.5194 12.8562 40.7085 12.4092 40.4953C12.1243 40.3591 11.844 40.2158 11.5653 40.067C11.2643 39.9049 11.0923 39.5958 11.0923 39.276ZM11.7875 3.36923C11.7875 3.03688 11.973 2.71706 12.2919 2.56298C12.5732 2.42681 12.8589 2.29423 13.1474 2.16971C13.6016 1.97352 14.1292 2.18225 14.3254 2.63644C14.5225 3.08973 14.3129 3.61827 13.8596 3.81446C13.5953 3.92913 13.3337 4.04917 13.0757 4.17458C12.6305 4.38958 12.0939 4.20415 11.878 3.75981C11.8162 3.6344 11.7875 3.50002 11.7875 3.36923ZM15.2857 40.9485C15.2857 40.8706 15.2965 40.7918 15.318 40.7129C15.4479 40.2355 15.9397 39.9533 16.4172 40.0832C16.6949 40.1584 16.9744 40.2274 17.2575 40.291C17.7403 40.3994 18.0431 40.8796 17.9338 41.3615C17.8245 41.8444 17.3453 42.1472 16.8624 42.0388C16.5551 41.9698 16.2497 41.8936 15.9478 41.8112C15.5482 41.7037 15.2857 41.3418 15.2857 40.9485ZM16.0373 1.86244C16.0373 1.45483 16.3177 1.08575 16.7325 0.989896C17.0371 0.920021 17.3453 0.856417 17.6552 0.798187C18.1417 0.707708 18.6093 1.02931 18.6998 1.51575C18.7885 1.9995 18.4686 2.47071 17.9822 2.56029C17.6973 2.61315 17.4151 2.67138 17.1347 2.73588C16.6528 2.84696 16.1717 2.54596 16.0606 2.064C16.0454 1.99681 16.0373 1.92873 16.0373 1.86244ZM19.7085 41.6383C19.7085 41.6249 19.7085 41.6124 19.7085 41.5989C19.7085 41.1044 20.1653 40.7219 20.6598 40.7425C20.9331 40.7541 21.2153 40.7604 21.4912 40.7604C21.9857 40.7604 22.413 40.9369 22.413 41.4323C22.413 41.9277 22.0376 42.1042 21.5431 42.1042H21.5001C21.1991 42.1042 20.882 42.3219 20.5837 42.3093C20.1017 42.2878 19.7085 42.1158 19.7085 41.6383ZM20.5613 1.11979C20.5613 0.624396 20.9196 0 21.4141 0L21.5001 0C21.8164 0 22.1308 0.231125 22.4435 0.244563C22.9371 0.265167 23.3043 0.793708 23.299 1.2909C23.2775 1.7854 22.8591 2.22435 22.3646 2.20285C22.078 2.19031 21.7895 2.09983 21.5001 2.09983C21.0056 2.09983 20.5613 1.61519 20.5613 1.11979ZM24.2432 41.3284C24.2432 40.9038 24.546 40.5266 24.9787 40.4487C25.2626 40.3958 25.5448 40.3394 25.8243 40.2749C26.3063 40.1638 26.7873 40.4648 26.8984 40.9468C27.0059 41.4332 26.7085 41.9107 26.2266 42.0209C25.9211 42.0907 25.612 42.1543 25.3003 42.2108C24.8138 42.3004 24.3471 41.977 24.2584 41.4896C24.2477 41.435 24.2432 41.3812 24.2432 41.3284ZM25.0871 1.84542C25.0871 1.77912 25.0942 1.71283 25.1095 1.64475C25.2196 1.16279 25.7007 0.860896 26.1827 0.971083C26.4899 1.04096 26.7954 1.118 27.0973 1.20131C27.5748 1.3321 27.8552 1.82392 27.7244 2.30229C27.5936 2.77888 27.1009 3.06017 26.6234 2.92848C26.3457 2.85233 26.0662 2.78246 25.784 2.71796C25.3683 2.623 25.0871 2.25392 25.0871 1.84542ZM28.5611 40.0258C28.5611 39.6791 28.7645 39.3486 29.1031 39.2026C29.3673 39.0888 29.628 38.9696 29.8869 38.8451C30.3322 38.6292 30.8679 38.8147 31.0838 39.2599C31.3006 39.706 31.1151 40.2408 30.669 40.4567C30.3868 40.5938 30.1001 40.7255 29.8108 40.8491C29.3557 41.0444 28.829 40.8339 28.6337 40.3797C28.5853 40.2632 28.5611 40.1441 28.5611 40.0258ZM29.3467 3.3325C29.3467 3.20171 29.3754 3.07002 29.4354 2.9446C29.6504 2.49848 30.1852 2.31125 30.6314 2.52535C30.9153 2.66242 31.1966 2.80575 31.4735 2.95446C31.9088 3.18917 32.0728 3.73025 31.839 4.16742C31.6051 4.60369 31.0614 4.76763 30.626 4.53292C30.3716 4.39675 30.1145 4.26506 29.8538 4.14054C29.5331 3.98556 29.3467 3.66575 29.3467 3.3325ZM32.4777 37.7907C32.4777 37.5139 32.6058 37.2416 32.8459 37.066C33.0788 36.8967 33.3072 36.7211 33.5312 36.5419C33.9173 36.232 34.4817 36.2947 34.7907 36.6808C35.1007 37.0678 35.0362 37.6322 34.651 37.9394C34.4055 38.1365 34.1556 38.3273 33.9012 38.5137C33.5016 38.8048 32.9408 38.717 32.6497 38.3166C32.5332 38.158 32.4777 37.9735 32.4777 37.7907ZM33.1666 5.73513C33.1666 5.53894 33.2302 5.34275 33.3619 5.17702C33.67 4.79002 34.2344 4.72731 34.6205 5.03638C34.8669 5.23256 35.1087 5.43412 35.3461 5.64196C35.7197 5.96804 35.7573 6.53421 35.4303 6.90598C35.1052 7.27865 34.539 7.31627 34.1672 6.99108C33.9504 6.80117 33.7292 6.61663 33.5043 6.43656C33.2821 6.25919 33.1666 5.9985 33.1666 5.73513ZM35.8021 34.7404C35.8021 34.5308 35.8756 34.3194 36.0243 34.1501C36.2133 33.9342 36.3978 33.7138 36.577 33.488C36.8852 33.101 37.4487 33.0374 37.8357 33.3456C38.2227 33.6538 38.2872 34.2164 37.9781 34.6043C37.781 34.8506 37.5795 35.0943 37.3716 35.3317C37.0455 35.7034 36.4794 35.7411 36.1076 35.415C35.9051 35.2376 35.8021 34.9895 35.8021 34.7404ZM36.3584 8.92698C36.3584 8.6636 36.4731 8.40292 36.6944 8.22644C37.0814 7.91738 37.6448 7.98008 37.9539 8.36708C38.1501 8.61165 38.3409 8.86248 38.5263 9.116C38.8184 9.51554 38.7297 10.0754 38.3311 10.3675C37.9315 10.6595 37.3707 10.5726 37.0796 10.1722C36.9103 9.93927 36.7347 9.70994 36.5546 9.48419C36.422 9.32025 36.3584 9.12317 36.3584 8.92698ZM38.3705 31.0281C38.3705 30.8848 38.4054 30.7387 38.478 30.6035C38.6141 30.3508 38.7449 30.0937 38.8695 29.8339C39.0836 29.3887 39.6193 29.2006 40.0645 29.4147C40.5106 29.6288 40.6978 30.1645 40.4837 30.6106C40.3467 30.8946 40.2033 31.1768 40.0537 31.4536C39.819 31.889 39.2753 32.052 38.8399 31.8164C38.5398 31.6552 38.3705 31.3461 38.3705 31.0281ZM38.7637 12.7423C38.7637 12.4091 38.9501 12.0893 39.269 11.9352C39.7142 11.7202 40.2499 11.9065 40.4658 12.3518C40.602 12.6339 40.7328 12.9206 40.8573 13.21C41.0526 13.665 40.843 14.1918 40.387 14.3862C39.9328 14.5815 39.4061 14.3701 39.2108 13.9168C39.097 13.6516 38.9778 13.39 38.8533 13.132C38.7915 13.0057 38.7637 12.8722 38.7637 12.7423ZM40.0457 26.8401C40.0457 26.7612 40.0564 26.6815 40.0779 26.6018C40.1541 26.3241 40.224 26.0455 40.2867 25.7642C40.396 25.2813 40.8752 24.9785 41.3581 25.0869C41.8409 25.1953 42.1428 25.6746 42.0344 26.1574C41.9646 26.4665 41.8884 26.772 41.8051 27.0748C41.6743 27.5514 41.1816 27.8326 40.7041 27.7019C40.3073 27.5944 40.0457 27.2324 40.0457 26.8401ZM40.2553 16.9958C40.2553 16.5873 40.5366 16.2182 40.9514 16.1232C41.4342 16.013 41.9144 16.3149 42.0246 16.7969C42.0945 17.1033 42.1572 17.4123 42.2136 17.7214C42.3077 18.2132 41.978 18.6745 41.4925 18.7632C41.006 18.8519 40.5393 18.5276 40.4506 18.0412C40.3986 17.7581 40.3413 17.475 40.2777 17.1955C40.2625 17.1283 40.2553 17.062 40.2553 16.9958ZM40.3126 22.3833C40.3126 22.3699 40.3126 22.3573 40.3126 22.3439C40.3126 22.0635 40.5456 21.7822 40.5456 21.5C40.5456 21.0046 40.8304 20.5925 41.3249 20.5925C41.8194 20.5925 42.1043 20.9831 42.1043 21.4785V21.5C42.1043 21.8091 42.3211 22.1163 42.3086 22.4209C42.2871 22.9154 41.7666 23.2979 41.2721 23.2773C40.791 23.2567 40.3126 22.8608 40.3126 22.3833Z" fill="white"/>
<path d="M0.000141144 21.5636V21.5C0.000141144 21.2062 0.23037 20.9141 0.242912 20.623C0.263515 20.1285 0.79385 19.7451 1.28835 19.7657C1.78285 19.7863 2.21643 20.2414 2.2012 20.6982C2.18956 20.9643 2.21285 21.2321 2.21285 21.5C2.21285 21.9954 1.60189 22.4272 1.10739 22.4272C0.612888 22.4272 0.000141144 22.059 0.000141144 21.5636ZM0.779514 25.1595C0.779514 24.7349 1.08141 24.3586 1.5132 24.2798C1.99964 24.1902 2.46637 24.5127 2.55595 24.9991C2.60881 25.2831 2.66703 25.5653 2.73154 25.8457C2.84172 26.3276 2.54162 26.8078 2.05966 26.9189C1.5777 27.03 1.09664 26.729 0.985554 26.2461C0.914783 25.9406 0.851181 25.6325 0.794746 25.3225C0.783997 25.2679 0.779514 25.2132 0.779514 25.1595ZM0.934494 17.0809C0.934494 17.0164 0.941662 16.9501 0.955994 16.8838C1.02497 16.5765 1.10022 16.271 1.18264 15.9682C1.31164 15.4908 1.80346 15.2077 2.28093 15.3367C2.75931 15.4666 3.0397 15.962 2.91249 16.4359C2.83724 16.7154 2.76737 16.994 2.70466 17.2761C2.59627 17.759 2.11789 18.0627 1.63504 17.9543C1.21758 17.8611 0.934494 17.4911 0.934494 17.0809ZM2.08833 29.4765C2.08833 29.1298 2.29079 28.8001 2.62941 28.6541C3.0836 28.4579 3.61124 28.6676 3.80654 29.1209C3.92031 29.3851 4.04124 29.6467 4.16577 29.9056C4.38077 30.3508 4.19622 30.8874 3.751 31.1024C3.30577 31.3183 2.77006 31.1329 2.55416 30.6877C2.4171 30.4064 2.2863 30.1197 2.16179 29.8313C2.11162 29.7166 2.08833 29.5956 2.08833 29.4765ZM2.40903 12.8149C2.40903 12.685 2.43681 12.5542 2.49683 12.4297C2.63299 12.1439 2.77633 11.8617 2.92504 11.5849C3.15885 11.1495 3.70173 10.9847 4.13799 11.2194C4.57337 11.4532 4.7382 11.9952 4.50439 12.4324C4.36912 12.685 4.23833 12.9421 4.11381 13.2019C3.9006 13.6489 3.36578 13.8379 2.91966 13.6247C2.59716 13.4698 2.40903 13.1499 2.40903 12.8149ZM4.32702 33.3913C4.32702 33.1145 4.45422 32.8421 4.69521 32.6666C5.09475 32.3745 5.65554 32.4623 5.94668 32.8628C6.11599 33.0957 6.29068 33.3232 6.47075 33.5463C6.7816 33.9324 6.71979 34.4968 6.33368 34.8058C5.94847 35.1158 5.3841 35.054 5.07414 34.6696C4.87706 34.4242 4.68445 34.1734 4.49812 33.918C4.38345 33.7595 4.32702 33.5749 4.32702 33.3913ZM4.80091 8.9861C4.80091 8.79081 4.86452 8.59463 4.99441 8.43069C5.1897 8.18433 5.39037 7.94156 5.59731 7.70327C5.9216 7.32971 6.48777 7.2894 6.86133 7.61369C7.23579 7.93708 7.27431 8.50325 6.95091 8.87681C6.76189 9.0954 6.57735 9.31667 6.39818 9.54242C6.09091 9.93031 5.52743 9.99571 5.13953 9.68844C4.91737 9.51196 4.80091 9.25038 4.80091 8.9861ZM7.38002 36.7113C7.38002 36.5025 7.45258 36.292 7.60129 36.1227C7.92648 35.75 8.49264 35.7115 8.86531 36.0367C9.0821 36.2257 9.30337 36.4094 9.52822 36.5867C9.91612 36.8958 9.98062 37.4593 9.67424 37.8454C9.36697 38.2333 8.8035 38.2987 8.4156 37.9914C8.16835 37.7943 7.92558 37.5936 7.68729 37.3849C7.48393 37.2093 7.38002 36.9612 7.38002 36.7113ZM7.98022 5.78708C7.98022 5.5246 8.09399 5.26571 8.31437 5.08923C8.55983 4.89035 8.81066 4.69775 9.06597 4.51142C9.46552 4.22027 10.0263 4.30806 10.3175 4.7085C10.6086 5.10804 10.5208 5.66883 10.1213 5.95908C9.88924 6.1284 9.6617 6.30398 9.43864 6.48315C9.05343 6.794 8.48906 6.73308 8.1791 6.34877C8.04472 6.18215 7.98022 5.98417 7.98022 5.78708ZM11.0923 39.276C11.0923 39.1336 11.1264 38.9894 11.1981 38.8541C11.4319 38.4178 11.9747 38.253 12.411 38.4868C12.6654 38.623 12.9225 38.7537 13.1823 38.8783C13.6285 39.0915 13.8175 39.6254 13.6043 40.0733C13.3902 40.5194 12.8562 40.7085 12.4092 40.4953C12.1243 40.3591 11.844 40.2158 11.5653 40.067C11.2643 39.9049 11.0923 39.5958 11.0923 39.276ZM11.7875 3.36923C11.7875 3.03688 11.973 2.71706 12.2919 2.56298C12.5732 2.42681 12.8589 2.29423 13.1474 2.16971C13.6016 1.97352 14.1292 2.18225 14.3254 2.63644C14.5225 3.08973 14.3129 3.61827 13.8596 3.81446C13.5953 3.92913 13.3337 4.04917 13.0757 4.17458C12.6305 4.38958 12.0939 4.20415 11.878 3.75981C11.8162 3.6344 11.7875 3.50002 11.7875 3.36923ZM15.2857 40.9485C15.2857 40.8706 15.2965 40.7918 15.318 40.7129C15.4479 40.2355 15.9397 39.9533 16.4172 40.0832C16.6949 40.1584 16.9744 40.2274 17.2575 40.291C17.7403 40.3994 18.0431 40.8796 17.9338 41.3615C17.8245 41.8444 17.3453 42.1472 16.8624 42.0388C16.5551 41.9698 16.2497 41.8936 15.9478 41.8112C15.5482 41.7037 15.2857 41.3418 15.2857 40.9485ZM16.0373 1.86244C16.0373 1.45483 16.3177 1.08575 16.7325 0.989896C17.0371 0.920021 17.3453 0.856417 17.6552 0.798187C18.1417 0.707708 18.6093 1.02931 18.6998 1.51575C18.7885 1.9995 18.4686 2.47071 17.9822 2.56029C17.6973 2.61315 17.4151 2.67138 17.1347 2.73588C16.6528 2.84696 16.1717 2.54596 16.0606 2.064C16.0454 1.99681 16.0373 1.92873 16.0373 1.86244ZM19.7085 41.6383C19.7085 41.6249 19.7085 41.6124 19.7085 41.5989C19.7085 41.1044 20.1653 40.7219 20.6598 40.7425C20.9331 40.7541 21.2153 40.7604 21.4912 40.7604C21.9857 40.7604 22.413 40.9369 22.413 41.4323C22.413 41.9277 22.0376 42.1042 21.5431 42.1042H21.5001C21.1991 42.1042 20.882 42.3219 20.5837 42.3093C20.1017 42.2878 19.7085 42.1158 19.7085 41.6383ZM20.5613 1.11979C20.5613 0.624396 20.9196 0 21.4141 0L21.5001 0C21.8164 0 22.1308 0.231125 22.4435 0.244563C22.9371 0.265167 23.3043 0.793708 23.299 1.2909C23.2775 1.7854 22.8591 2.22435 22.3646 2.20285C22.078 2.19031 21.7895 2.09983 21.5001 2.09983C21.0056 2.09983 20.5613 1.61519 20.5613 1.11979ZM24.2432 41.3284C24.2432 40.9038 24.546 40.5266 24.9787 40.4487C25.2626 40.3958 25.5448 40.3394 25.8243 40.2749C26.3063 40.1638 26.7873 40.4648 26.8984 40.9468C27.0059 41.4332 26.7085 41.9107 26.2266 42.0209C25.9211 42.0907 25.612 42.1543 25.3003 42.2108C24.8138 42.3004 24.3471 41.977 24.2584 41.4896C24.2477 41.435 24.2432 41.3812 24.2432 41.3284ZM25.0871 1.84542C25.0871 1.77912 25.0942 1.71283 25.1095 1.64475C25.2196 1.16279 25.7007 0.860896 26.1827 0.971083C26.4899 1.04096 26.7954 1.118 27.0973 1.20131C27.5748 1.3321 27.8552 1.82392 27.7244 2.30229C27.5936 2.77888 27.1009 3.06017 26.6234 2.92848C26.3457 2.85233 26.0662 2.78246 25.784 2.71796C25.3683 2.623 25.0871 2.25392 25.0871 1.84542ZM28.5611 40.0258C28.5611 39.6791 28.7645 39.3486 29.1031 39.2026C29.3673 39.0888 29.628 38.9696 29.8869 38.8451C30.3322 38.6292 30.8679 38.8147 31.0838 39.2599C31.3006 39.706 31.1151 40.2408 30.669 40.4567C30.3868 40.5938 30.1001 40.7255 29.8108 40.8491C29.3557 41.0444 28.829 40.8339 28.6337 40.3797C28.5853 40.2632 28.5611 40.1441 28.5611 40.0258ZM29.3467 3.3325C29.3467 3.20171 29.3754 3.07002 29.4354 2.9446C29.6504 2.49848 30.1852 2.31125 30.6314 2.52535C30.9153 2.66242 31.1966 2.80575 31.4735 2.95446C31.9088 3.18917 32.0728 3.73025 31.839 4.16742C31.6051 4.60369 31.0614 4.76763 30.626 4.53292C30.3716 4.39675 30.1145 4.26506 29.8538 4.14054C29.5331 3.98556 29.3467 3.66575 29.3467 3.3325ZM32.4777 37.7907C32.4777 37.5139 32.6058 37.2416 32.8459 37.066C33.0788 36.8967 33.3072 36.7211 33.5312 36.5419C33.9173 36.232 34.4817 36.2947 34.7907 36.6808C35.1007 37.0678 35.0362 37.6322 34.651 37.9394C34.4055 38.1365 34.1556 38.3273 33.9012 38.5137C33.5016 38.8048 32.9408 38.717 32.6497 38.3166C32.5332 38.158 32.4777 37.9735 32.4777 37.7907ZM33.1666 5.73513C33.1666 5.53894 33.2302 5.34275 33.3619 5.17702C33.67 4.79002 34.2344 4.72731 34.6205 5.03638C34.8669 5.23256 35.1087 5.43412 35.3461 5.64196C35.7197 5.96804 35.7573 6.53421 35.4303 6.90598C35.1052 7.27865 34.539 7.31627 34.1672 6.99108C33.9504 6.80117 33.7292 6.61663 33.5043 6.43656C33.2821 6.25919 33.1666 5.9985 33.1666 5.73513ZM35.8021 34.7404C35.8021 34.5308 35.8756 34.3194 36.0243 34.1501C36.2133 33.9342 36.3978 33.7138 36.577 33.488C36.8852 33.101 37.4487 33.0374 37.8357 33.3456C38.2227 33.6538 38.2872 34.2164 37.9781 34.6043C37.781 34.8506 37.5795 35.0943 37.3716 35.3317C37.0455 35.7034 36.4794 35.7411 36.1076 35.415C35.9051 35.2376 35.8021 34.9895 35.8021 34.7404ZM36.3584 8.92698C36.3584 8.6636 36.4731 8.40292 36.6944 8.22644C37.0814 7.91738 37.6448 7.98008 37.9539 8.36708C38.1501 8.61165 38.3409 8.86248 38.5263 9.116C38.8184 9.51554 38.7297 10.0754 38.3311 10.3675C37.9315 10.6595 37.3707 10.5726 37.0796 10.1722C36.9103 9.93927 36.7347 9.70994 36.5546 9.48419C36.422 9.32025 36.3584 9.12317 36.3584 8.92698ZM38.3705 31.0281C38.3705 30.8848 38.4054 30.7387 38.478 30.6035C38.6141 30.3508 38.7449 30.0937 38.8695 29.8339C39.0836 29.3887 39.6193 29.2006 40.0645 29.4147C40.5106 29.6288 40.6978 30.1645 40.4837 30.6106C40.3467 30.8946 40.2033 31.1768 40.0537 31.4536C39.819 31.889 39.2753 32.052 38.8399 31.8164C38.5398 31.6552 38.3705 31.3461 38.3705 31.0281ZM38.7637 12.7423C38.7637 12.4091 38.9501 12.0893 39.269 11.9352C39.7142 11.7202 40.2499 11.9065 40.4658 12.3518C40.602 12.6339 40.7328 12.9206 40.8573 13.21C41.0526 13.665 40.843 14.1918 40.387 14.3862C39.9328 14.5815 39.4061 14.3701 39.2108 13.9168C39.097 13.6516 38.9778 13.39 38.8533 13.132C38.7915 13.0057 38.7637 12.8722 38.7637 12.7423ZM40.0457 26.8401C40.0457 26.7612 40.0564 26.6815 40.0779 26.6018C40.1541 26.3241 40.224 26.0455 40.2867 25.7642C40.396 25.2813 40.8752 24.9785 41.3581 25.0869C41.8409 25.1953 42.1428 25.6746 42.0344 26.1574C41.9646 26.4665 41.8884 26.772 41.8051 27.0748C41.6743 27.5514 41.1816 27.8326 40.7041 27.7019C40.3073 27.5944 40.0457 27.2324 40.0457 26.8401ZM40.2553 16.9958C40.2553 16.5873 40.5366 16.2182 40.9514 16.1232C41.4342 16.013 41.9144 16.3149 42.0246 16.7969C42.0945 17.1033 42.1572 17.4123 42.2136 17.7214C42.3077 18.2132 41.978 18.6745 41.4925 18.7632C41.006 18.8519 40.5393 18.5276 40.4506 18.0412C40.3986 17.7581 40.3413 17.475 40.2777 17.1955C40.2625 17.1283 40.2553 17.062 40.2553 16.9958ZM40.3126 22.3833C40.3126 22.3699 40.3126 22.3573 40.3126 22.3439C40.3126 22.0635 40.5456 21.7822 40.5456 21.5C40.5456 21.0046 40.8304 20.5925 41.3249 20.5925C41.8194 20.5925 42.1043 20.9831 42.1043 21.4785V21.5C42.1043 21.8091 42.3211 22.1163 42.3086 22.4209C42.2871 22.9154 41.7666 23.2979 41.2721 23.2773C40.791 23.2567 40.3126 22.8608 40.3126 22.3833Z" stroke="white" mask="url(#path-2-outside-1)"/>
<path d="M9.85449 20.3542C9.22209 20.3542 8.70866 20.8664 8.70866 21.5C8.70866 22.1336 9.22209 22.6458 9.85449 22.6458H35.8337C36.4661 22.6458 36.9795 22.1336 36.9795 21.5C36.9795 20.8664 36.4661 20.3542 35.8337 20.3542H9.85449Z" fill="white" stroke="white" stroke-width="0.5"/>
<path d="M11.4744 21.5L20.7988 12.1747C20.7988 12.1747 20.7988 12.1747 20.7988 12.1747C21.2467 11.7268 21.2467 11.0023 20.7988 10.5544C20.3509 10.1065 19.6265 10.1065 19.1786 10.5544L19.1786 10.5544L9.04401 20.6899C9.04401 20.6899 9.04401 20.6899 9.04401 20.6899C8.82067 20.9132 8.70831 21.2069 8.70831 21.5C8.70831 21.7931 8.82067 22.0868 9.04401 22.3101L19.1786 32.4447C19.6265 32.8926 20.3509 32.8926 20.7988 32.4447C21.2467 31.9968 21.2467 31.2723 20.7988 30.8244L11.4744 21.5Z" fill="white" stroke="white" stroke-width="0.5"/>
</g>
<defs>
<clipPath id="clip0">
<rect x="43" width="43" height="43" transform="rotate(90 43 0)" fill="white"/>
</clipPath>
</defs>
</svg>
